<?xml version="1.0" encoding="utf-8"?>
<!-- Generator: Adobe Illustrator 23.0.3, SVG Export Plug-In . SVG Version: 6.00 Build 0)  -->
<svg version="1.1" id="Layer_1" xmlns="http://www.w3.org/2000/svg" xmlns:xlink="http://www.w3.org/1999/xlink" x="0px" y="0px"
	 viewBox="0 0 452.2 452.4" style="enable-background:new 0 0 452.2 452.4;" xml:space="preserve">
<path d="M247.2,326.8h-3.5l-0.8,3.8l-4.2,10l-6.9,3.8l-3.1,2.7L226,351l4.6,8.1v3.8l-2.3,3.1l2.3,5.4l4.6,6.9l4.6,3.8l5.8-3.1
	l5.8-12.5V351l3.5-10.4l-2.3-7.3L247.2,326.8z"/>
<path d="M434.7,233.6l-5.1-9.5l-5.8-6.1l-6.3-6.4l-6.4-1.3l3.3,11.3l9.5,13.1l5.6,8.2l3.5,3.3l3.5-4.9L434.7,233.6z"/>
<path d="M358.2,215.2l-3.1-1.8l-4.1,2.1v4.6l3.8,12.3l1.3,3.3l5.1-5.6c0,0,1.5-4.9,1.3-5.6C362.2,223.6,358.2,215.2,358.2,215.2
	L358.2,215.2z"/>
<path d="M226,0C101.3,0-0.1,101.5-0.1,226.2S101.3,452.4,226,452.4s226.2-101.5,226.2-226.2S350.8,0,226,0z M226,440.9
	c-118.4,0-214.7-96.3-214.7-214.7S107.6,11.5,226,11.5c5.8,0,11.6,0.3,17.3,0.8l-3.1,2.3l-5.8,11.5L226,28l-9.2,4.2l-4.6,3.1
	l-13.8,5l-5.8,0.4l-6.9,0.8h-11.9l-5-5l-17.3,3.8l-12.7,7.3l-10.8,7.3l-9.2,9.2l-6.1,4.6l3.4,2.7l6.9,0.8l-3.8,5.4l7.3-1.5l8.5-10
	l-2.3-6.9l8.8-3.8l8.8-6.1l-5,8.1v4.2h6.1l2.3,1.9l-8.8,1.5l-4.2,6.1l-4.2,6.5c0,0-7.3,0.4-8.1,1.5c-0.8,1.1-4.6,5-4.6,5l-10,1.1
	l-0.8-3.5l-7.3,3.1l-6.9,5.4l-5.8,1.5L92,86.4l1.1-6.5l-1.9-7.7c0,0-5,5.4-5,6.9s1.5,9.6,0,9.2c-1.5-0.4-6.2-2.7-6.2-2.7
	s0-5.4-1.5-3.1c-1.5,2.3-5,6.9-5,6.9l4.2,6.1l-3.5,1.9l1.9,2.7l-3.1,4.2c0,0,0.4,1.5,0.4,3.1s-1.1,6.5-1.1,6.5l-3.1,5.4l-3.5,1.9H64
	l-4.6,1.5l-5.8,3.8l-3.5,8.1l-4.6,8.1c0,0,2.7,2.7,3.8,3.8c1.1,1.1,3.8,1.9,5,1.1c1.1-0.8,11.1-6.9,11.1-6.9l6.5-10.8l9.2-5.4
	l9.6-2.7l10,8.8l7.3,8.8c0,0,5.4-3.8,4.2-4.6c-1.1-0.8-5.4-9.6-6.5-10c-1.2-0.4-3.8-5.4-3.8-5.4l2.3-3.5l9.6,6.9l6.5,10.8l5,1.9
	l1.9-11.1l5.4-4.2l4.6-0.8l5,8.1l3.8,9.2l9.6,5l6.5-0.8l2.7,2.7l-5.8,12.3l-8.8,5l-5.4-1.5l-6.5,3.1l-7.7-0.4l-7.3-2.7l-9.6,2.3
	l-1.1,3.5l-3.5,5l-5.8-2.7l-6.5-7.7h-7.3v-5l2.3-4.2l-2.7-4.2l-12.7,1.9H65.5l-5.4,4.6h-6.9l-7.7,4.2l-5.8,9.2l-3.1,7.3L27.5,187
	l-7.3,8.8l-3.1,11.9l-3.8,8.4v15.4l6.1,23l10.8,20.7h18.4l8.5-3.8l5.4-2.3l12.3,6.1l6.9,6.1v15.4l10.7,12.3l6.9,10l6.9,15.4v12.3
	l3.8,7.7l9.2,16.1l7.7,13.1l11.5,13.8l8.5,13.1l9.2,6.1l6.9,6.1l6.9-5.4c0,0,5.4,0.8,7.7-0.8c2.3-1.5,7.7-6.1,7.7-6.1l5.4-4.6l10-10
	v-14.6l-5.4-6.9l0.8-6.1l9.2-11.5l10-9.2l-3.8-9.2l-10-21.5l-5.4-9.2l9.2-7.7c0,0,13.8-23,16.1-23.8c2.3-0.8,13.1-20.7,15.4-24.6
	c2.3-3.8,3.8-11.5,3.8-11.5v-8.5c0,0-8.5,0.8-11.5,0c-3.1-0.8-20,5.4-20,5.4c0,0-6.9-4.8-9.2-5.5c-2.3-0.7-26.9-15.3-26.9-15.3
	l-6.1-21.5l-6.1-7.7l-5.4-13.8h7.7l21.5,20l10.8,20.7l13.1,6.1l11.5,6.1l13.8-7.7l11.5-13.1l9.2-9.2l4.6-12.3l-7.7-6.1l-6.1-4.6
	l-10.8,8.5L226,177l-5.4-11.5l-6.9-7.7l12.3,5.4l13.8,2.3l23,3.1L276,164l11.5,0.8l8.4,12.3l10.8,3.1l5.4-2.3l3.8,6.9l14.6,20
	l9.2,10l3.8,6.9l7.7-16.9v-11.5l6.9-13.1v-9.2l10-13.1h9.2l16.1,4.6l6.9,10.8l3.8,1.5l4.6,16.1l4.6,9.6l6.9,6.9l3.5-0.4l-3.5-7.3
	l-4.6-6.9l-0.4-7.7l-3-7.3l7.3,6.5l4.2-2.7l3.8-9.6c0,0-1.2-5.8-2.3-6.5c-1.1-0.8-5.4-7.7-5.4-7.7l-6.9-6.9l-2.3-10l6.1-8.8l1.2-1.7
	c10.4,20.8,17.6,43.6,20.7,67.6c-0.6,1.2-1.1,2.1-1.1,2.1l-1.3,10.2l-3.5,2.3l7.6,10.3c0,1.1,0.1,2.2,0.1,3.3
	C440.8,344.6,344.4,440.9,226,440.9L226,440.9z M242.6,92.9v3.6l-1.1,2.1l-4,1.4h-3.8l-1.4-3.6l2.9-3.5l2.3-3.5h1l3.1,1.1
	L242.6,92.9z M205.9,113.5l-4.8-8.6l2.1-4.2l2.9-3.5l4.2-3.3l4.4-1l0.8,5.7l-2.4,3.3v5l2.6,3.6l6.3,2l1.1,3.1c0,0-2.7,2.7-3.5,3
	c-0.8,0.3,2.1,2.6,2.1,2.6s2.5,5,3.1,5.6c0.6,0.6,0,4.4,0,4.4l-5.4,1.2h-5.9l-4.2-3.3l-4.1-2.5l3.4-5.6c0,0,0.6-5.2,0.8-5.8
	C209.5,114.6,205.9,113.5,205.9,113.5L205.9,113.5z M175.3,109l6.5,3.3l1,8.1l-4.8,2.1h-9.2l-7.5-2.1l-14,2.1l-3.1-3.8v-2.1l3.1-3.6
	l1.5-4.4l4.8-1l1.1,3l3.1,1.8l4.2-2.7l3-6.5c0,0,2.8-3.6,3.9-4.4c1.1-0.8,1.7,4.2,1.7,4.2l-1,6.1L175.3,109L175.3,109z"/>
</svg>
